<svg width="35" height="35" viewBox="0 0 35 35" fill="none" xmlns="http://www.w3.org/2000/svg">
<path d="M13.3714 10.5154C13.0361 9.7195 12.6952 9.8273 12.4411 9.8147C12.2003 9.8035 11.9252 9.8 11.6494 9.8C11.3736 9.8 10.9263 9.9022 10.5469 10.311C10.1675 10.7198 9.10001 11.7068 9.10001 13.7158C9.10001 15.7248 10.5812 17.6645 10.7877 17.9375C10.9949 18.2098 13.7025 22.3321 17.8486 24.1003C18.8349 24.5203 19.6049 24.7716 20.2048 24.9599C21.1946 25.2707 22.0962 25.2266 22.8088 25.1216C23.6026 25.0047 25.2546 24.1339 25.599 23.1812C25.9434 22.2278 25.9434 21.4109 25.8398 21.2408C25.7362 21.0707 25.4604 20.9685 25.0474 20.7641C24.6344 20.5597 22.6016 19.572 22.2222 19.4369C21.8428 19.3004 21.5677 19.2325 21.2919 19.6413C21.0161 20.0501 20.2244 20.9685 19.9836 21.2415C19.7428 21.5138 19.5013 21.5481 19.0883 21.3437C18.6753 21.1393 17.3425 20.7088 15.7647 19.3179C14.5355 18.2357 13.706 16.8994 13.4652 16.4906C13.2244 16.0818 13.4393 15.8613 13.6465 15.6576C13.8327 15.4742 14.0595 15.1809 14.2667 14.9422C14.4739 14.7035 14.5425 14.5334 14.6797 14.2611C14.8169 13.9888 14.7483 13.7501 14.6447 13.5457C14.5425 13.3413 13.7158 11.333 13.3714 10.5154Z" stroke="#FAFAFA" stroke-width="2" stroke-miterlimit="10"/>
<path d="M17.5 2.10001C8.99501 2.10001 2.10001 8.99501 2.10001 17.5C2.10001 20.3504 2.87771 23.0188 4.22801 25.3085L2.10001 32.9L9.99181 30.9449C12.2136 32.1881 14.7728 32.9 17.5 32.9C26.005 32.9 32.9 26.005 32.9 17.5C32.9 8.99501 26.005 2.10001 17.5 2.10001Z" stroke="#FAFAFA" stroke-width="2" stroke-miterlimit="10" stroke-linejoin="round"/>
</svg>
