<svg width="100" height="28" viewBox="0 0 100 28" fill="none" xmlns="http://www.w3.org/2000/svg">
<path fill-rule="evenodd" clip-rule="evenodd" d="M69.8191 10.3892H54.6387C52.1286 10.3892 50.9986 11.0739 50.5286 12.4827L49.1086 17.0022H64.289C66.7991 17.0022 67.9291 16.3175 68.3991 14.9088L69.8191 10.3892Z" fill="#00A952"/>
<path fill-rule="evenodd" clip-rule="evenodd" d="M17.7376 6.62287H14.8776C9.1274 6.62287 4.22726 20.7588 10.9975 20.7393H15.3576C17.8677 20.7393 19.7277 21.6295 18.9077 24.036L17.7777 27.3426H13.1575L9.39741 27.3132C4.59727 27.2741 1.49719 24.9654 0.377153 21.4534C-0.842882 17.6675 0.877167 9.77289 5.82731 4.70547C8.69739 1.77066 12.6775 0 17.7777 0H27.2079L25.7279 4.14785C24.7778 6.82831 22.8178 6.62287 21.7178 6.62287H17.7376Z" fill="#00A952"/>
<path fill-rule="evenodd" clip-rule="evenodd" d="M66.119 20.7583H50.9386C48.4285 20.7583 47.2885 21.4431 46.8285 22.8518L45.3985 27.3616H60.5789C63.089 27.3616 64.229 26.6768 64.689 25.2681L66.119 20.7583ZM73.3393 0.0288086H58.1588C55.6487 0.0288086 54.5087 0.713596 54.0487 2.1223L52.6287 6.63211H67.8091C70.3192 6.63211 71.4592 5.94733 71.9192 4.53862L73.3393 0.0288086Z" fill="#00A952"/>
<path fill-rule="evenodd" clip-rule="evenodd" d="M35.1681 6.61257H38.9583C42.1883 6.61257 41.4483 10.555 39.8083 14.3996C38.3682 17.7746 35.8282 20.7779 32.7981 20.7779H26.4979C23.9878 20.7779 22.8278 21.4627 22.3378 22.8714L20.7877 27.3714H25.3979L29.908 27.3323C33.9181 27.3029 37.1882 27.0192 41.0283 23.6344C45.0784 20.054 49.7986 10.7898 48.9885 5.44843C48.3585 1.25166 46.0585 0.019043 40.4683 0.019043H30.308L24.3878 16.9822H28.1479C30.378 16.9822 31.518 17.0115 32.6981 13.8811L35.1681 6.61257Z" fill="#00A952"/>
<path fill-rule="evenodd" clip-rule="evenodd" d="M67.2791 27.3621H74.4393L77.5094 18.7534L80.7094 16.1121L83.2395 23.8991C84.0196 26.3056 84.8196 27.3621 86.5796 27.3621H92.0698L86.4096 12.0816L100 0H91.2198L82.9695 8.60875C82.0095 9.60659 81.0295 10.5946 80.0694 11.7783H79.9894L84.0795 0H76.9193L67.2791 27.3621Z" fill="#00A952"/>
</svg>
