<svg width="50" height="50" viewBox="0 0 50 50" fill="none" xmlns="http://www.w3.org/2000/svg">
<g clip-path="url(#clip0_74_126)">
<path d="M28.7216 40.542L9.50873 30.957L5.43884 39.1021L27.0105 43.8875L28.7216 40.542Z" fill="#FCAF17"/>
<path d="M36.9837 23.9976L24.994 0L20.4718 9.0485L34.8571 28.2325L36.9837 23.9976Z" fill="#FCAF17"/>
<path d="M33.9037 30.1664L19.5184 10.9824L15.4486 19.1275L32.2293 33.512L33.9037 30.1664Z" fill="#FCAF17"/>
<path d="M31.3249 35.319L14.5442 20.9346L10.4498 29.1502L29.6261 38.721L31.3249 35.319Z" fill="#FCAF17"/>
<path d="M4.50997 40.9653L0 50H23.9673L26.0939 45.7649L4.50997 40.9653Z" fill="#FCAF17"/>
<path d="M26.0451 49.9998H32.4127L38.0225 38.7913L43.6326 49.9998H50L38.0225 26.002L26.0451 49.9998Z" fill="#FCAF17"/>
</g>
<defs>
<clipPath id="clip0_74_126">
<rect width="50" height="50" fill="white"/>
</clipPath>
</defs>
</svg>
